<svg width="158" height="26" fill="none" xmlns="http://www.w3.org/2000/svg"><g clip-path="url(#clip0_405_89538)"><path d="M97.729 1.578V10h-1.525V1.58h1.525zm2.559 4.722V10H98.8V3.684h1.423V4.76h.072c.146-.354.377-.635.698-.843.321-.208.715-.313 1.186-.313.437 0 .816.092 1.142.278.323.186.577.457.757.81.181.354.269.783.266 1.287V10h-1.487V6.21c0-.421-.108-.753-.327-.99-.218-.24-.519-.36-.903-.36-.261 0-.491.058-.692.17a1.19 1.19 0 00-.472.493c-.113.213-.17.474-.17.777h-.005zm10.463-2.615l-2.25 6.317h-1.646l-2.25-6.317h1.588l1.452 4.691h.066l1.455-4.69h1.585zm3.083 6.44c-.632 0-1.179-.133-1.638-.397a2.643 2.643 0 01-1.059-1.126c-.246-.487-.371-1.061-.371-1.72 0-.66.123-1.222.371-1.714a2.802 2.802 0 011.044-1.152c.446-.275.971-.413 1.575-.413.389 0 .758.062 1.104.188.346.125.655.318.921.577.266.258.476.592.632.993.153.401.231.88.231 1.432v.457h-5.178V6.247h3.75a1.608 1.608 0 00-.185-.763 1.368 1.368 0 00-.505-.53 1.442 1.442 0 00-.75-.192c-.303 0-.572.072-.802.22a1.55 1.55 0 00-.537.575 1.656 1.656 0 00-.196.78v.875c0 .367.068.683.201.944.135.26.321.461.564.6.243.137.524.207.848.207.216 0 .411-.03.587-.092.176-.063.329-.153.457-.274.128-.12.225-.27.291-.449l1.389.156a2.16 2.16 0 01-.499.96 2.412 2.412 0 01-.941.633 3.55 3.55 0 01-1.307.223l.003.005zm8.539-4.771l-1.357.148a1.113 1.113 0 00-.198-.387.989.989 0 00-.381-.29 1.401 1.401 0 00-.585-.111c-.311 0-.569.068-.78.2-.211.133-.314.31-.311.522a.547.547 0 00.203.45c.138.115.369.21.69.283l1.076.23c.597.129 1.044.334 1.335.613.291.278.439.644.441 1.098a1.704 1.704 0 01-.349 1.052c-.23.303-.546.539-.95.71-.407.17-.871.255-1.398.255-.772 0-1.394-.163-1.866-.486-.472-.324-.753-.778-.843-1.36l1.453-.14c.065.286.205.499.419.644.213.146.491.219.835.219s.637-.073.853-.219c.216-.145.323-.323.323-.54 0-.18-.07-.33-.208-.448-.138-.118-.354-.208-.642-.271l-1.076-.226c-.607-.125-1.054-.338-1.345-.64-.291-.3-.434-.68-.431-1.14a1.619 1.619 0 01.318-1.014 2.09 2.09 0 01.901-.668c.386-.158.83-.235 1.334-.235.741 0 1.325.158 1.749.471.426.316.69.743.793 1.28h-.003zm3.999-1.669v1.152h-3.63V3.685h3.63zm-2.734-1.513h1.487v5.93c0 .201.03.354.093.46a.476.476 0 00.246.216c.1.037.213.057.336.057a1.607 1.607 0 00.434-.057l.251 1.163a2.804 2.804 0 01-.876.148 2.41 2.41 0 01-1.008-.17 1.556 1.556 0 01-.71-.582c-.173-.263-.261-.592-.256-.986V2.17l.003.002zm5.877 7.83V1.578h3.158c.648 0 1.192.113 1.631.336.439.224.773.54.998.944.226.403.339.875.339 1.412 0 .537-.115 1.008-.344 1.405a2.273 2.273 0 01-1.008.918c-.444.216-.991.323-1.636.323h-2.25V5.65h2.045c.378 0 .687-.053.928-.159a1.11 1.11 0 00.537-.464c.115-.203.175-.456.175-.755 0-.298-.06-.554-.178-.767a1.132 1.132 0 00-.539-.484c-.241-.11-.552-.166-.933-.166h-1.398v7.147h-1.525zm4.35-3.816l2.085 3.816h-1.704l-2.047-3.816h1.666zm3.344-3.399a.867.867 0 01-.61-.236.749.749 0 01-.256-.57.76.76 0 01.256-.574.866.866 0 01.61-.236.86.86 0 01.609.236.757.757 0 01.254.575.746.746 0 01-.254.57.856.856 0 01-.609.235zm-.748 7.212V3.685h1.488v6.317h-1.488v-.003zm5.243 2.501c-.534 0-.993-.072-1.377-.215a2.467 2.467 0 01-.926-.577 1.995 1.995 0 01-.484-.803l1.34-.326c.06.123.148.246.263.369.116.123.271.223.467.303.195.08.444.12.742.12.422 0 .773-.102 1.049-.306.276-.203.416-.539.416-1.005V8.863h-.072a2.202 2.202 0 01-.337.474 1.706 1.706 0 01-.579.407c-.238.107-.542.165-.903.165-.484 0-.926-.115-1.317-.344-.394-.228-.705-.572-.938-1.028-.231-.457-.347-1.029-.347-1.716s.116-1.28.347-1.758c.23-.48.544-.84.94-1.09a2.428 2.428 0 011.32-.37c.369 0 .675.062.916.188.24.125.431.273.574.449.143.173.251.338.324.491h.082V3.688h1.468v6.42c0 .539-.128.985-.386 1.339-.259.354-.61.617-1.057.793a4.124 4.124 0 01-1.52.263l-.005-.002zm.013-3.757c.316 0 .584-.078.805-.231a1.43 1.43 0 00.507-.662c.115-.289.173-.633.173-1.036 0-.404-.058-.746-.171-1.044a1.523 1.523 0 00-.501-.697c-.221-.166-.492-.249-.813-.249-.321 0-.61.086-.831.259a1.59 1.59 0 00-.501.71c-.113.3-.168.64-.168 1.02 0 .382.057.725.17 1.014.113.288.281.514.507.675.223.16.499.24.825.24h-.002zm5.448-2.443V10h-1.487V1.577h1.455v3.178h.073c.148-.356.378-.637.689-.845.311-.206.708-.311 1.192-.311.439 0 .82.093 1.146.276.327.183.58.452.758.805.178.354.268.785.268 1.295v4.02h-1.487v-3.79c0-.424-.108-.755-.326-.993-.219-.236-.522-.356-.916-.356-.263 0-.499.058-.705.17a1.198 1.198 0 00-.484.492 1.624 1.624 0 00-.176.778v.002zm8.244-2.615v1.152h-3.63V3.685h3.63zm-2.735-1.513h1.488v5.93c0 .201.03.354.093.46a.472.472 0 00.246.216c.1.037.213.057.336.057a1.607 1.607 0 00.434-.057l.251 1.163a2.813 2.813 0 01-.876.148c-.374.01-.71-.045-1.008-.17a1.55 1.55 0 01-.71-.582c-.173-.263-.261-.592-.256-.986V2.17l.002.002zm5.206 6.678l-.053.452a6.74 6.74 0 01-.203 1.053c-.098.359-.198.688-.306.989-.108.3-.194.539-.259.712h-1.003c.037-.168.09-.394.158-.682a17.4 17.4 0 00.196-.971c.062-.359.105-.725.127-1.094l.031-.461h1.317l-.005.002zm-60.151 5.01v8.421h-1.525V13.86h1.525zm2.559 4.721v3.7H98.8v-6.316h1.423v1.073h.072c.146-.353.377-.634.698-.843.321-.208.715-.313 1.186-.313.437 0 .816.093 1.142.278.323.186.577.457.757.81.181.354.269.783.266 1.288v4.02h-1.487v-3.79c0-.421-.108-.752-.327-.99-.218-.239-.519-.36-.903-.36-.261 0-.491.058-.692.171a1.19 1.19 0 00-.472.492c-.113.213-.17.474-.17.778l-.005.002zm10.463-2.614l-2.25 6.317h-1.646l-2.25-6.317h1.588l1.452 4.691h.066l1.455-4.69h1.585zm3.083 6.44c-.632 0-1.179-.133-1.638-.397a2.644 2.644 0 01-1.059-1.126c-.246-.487-.371-1.061-.371-1.721 0-.66.123-1.222.371-1.713a2.802 2.802 0 011.044-1.152c.446-.276.971-.414 1.575-.414.389 0 .758.063 1.104.188.346.126.655.319.921.577.266.259.476.592.632.994.153.401.231.88.231 1.432v.457h-5.178v-1.004h3.75a1.608 1.608 0 00-.185-.762 1.368 1.368 0 00-.505-.53 1.442 1.442 0 00-.75-.193c-.303 0-.572.073-.802.221a1.55 1.55 0 00-.537.575 1.656 1.656 0 00-.196.78v.875c0 .366.068.682.201.943.135.261.321.462.564.6.243.138.524.208.848.208.216 0 .411-.03.587-.093.176-.062.329-.153.457-.273a1.16 1.16 0 00.291-.45l1.389.156a2.159 2.159 0 01-.499.961 2.412 2.412 0 01-.941.632 3.55 3.55 0 01-1.307.224l.003.005zm8.539-4.772l-1.357.148a1.114 1.114 0 00-.198-.386.988.988 0 00-.381-.291 1.4 1.4 0 00-.585-.11c-.311 0-.569.067-.78.2-.211.133-.314.309-.311.522a.547.547 0 00.203.45c.138.114.369.21.69.283l1.076.23c.597.128 1.044.334 1.335.612.291.279.439.645.441 1.1a1.704 1.704 0 01-.349 1.05c-.23.304-.546.54-.95.71-.407.17-.871.256-1.398.256-.772 0-1.394-.163-1.866-.487-.472-.323-.753-.777-.843-1.36l1.453-.14c.065.286.205.5.419.645.213.145.491.218.835.218s.637-.073.853-.218c.216-.145.323-.324.323-.54 0-.18-.07-.33-.208-.448-.138-.118-.354-.209-.642-.271l-1.076-.226c-.607-.126-1.054-.339-1.345-.64-.291-.3-.434-.68-.431-1.141a1.619 1.619 0 01.318-1.014c.216-.286.515-.509.901-.667.386-.158.83-.236 1.334-.236.741 0 1.325.158 1.749.472.426.316.69.742.793 1.28h-.003zm3.999-1.668v1.152h-3.63v-1.152h3.63zm-2.734-1.512h1.487v5.93c0 .2.03.354.093.459a.476.476 0 00.246.216c.1.037.213.057.336.057a1.612 1.612 0 00.434-.057l.251 1.164a2.812 2.812 0 01-.876.148 2.41 2.41 0 01-1.008-.17 1.556 1.556 0 01-.71-.583c-.173-.263-.261-.592-.256-.986v-6.176l.003-.002zm12.798-.595v8.421h-1.357l-3.968-5.737h-.071v5.737h-1.525V13.86h1.365l3.963 5.74h.073v-5.74h1.52zm3.823 8.547c-.617 0-1.151-.136-1.603-.407a2.77 2.77 0 01-1.051-1.139c-.248-.486-.371-1.058-.371-1.71 0-.653.123-1.225.371-1.716.249-.492.6-.873 1.051-1.144.452-.271.986-.407 1.603-.407s1.152.136 1.603.407c.452.27.803.652 1.051 1.144.249.491.372 1.06.372 1.715s-.123 1.222-.372 1.711a2.73 2.73 0 01-1.051 1.14c-.451.27-.986.406-1.603.406zm.008-1.192c.334 0 .614-.093.838-.279.226-.185.394-.433.504-.747.11-.314.166-.66.166-1.044 0-.383-.056-.737-.166-1.05a1.653 1.653 0 00-.504-.75 1.273 1.273 0 00-.838-.28c-.334 0-.627.094-.853.28a1.682 1.682 0 00-.507.75c-.11.313-.165.664-.165 1.05 0 .387.055.733.165 1.044.111.314.281.562.507.747.226.186.512.279.853.279zm4.887 1.065l-1.784-6.316h1.518l1.111 4.44h.058l1.134-4.44h1.5l1.134 4.415h.062l1.094-4.415h1.523l-1.789 6.317h-1.55l-1.184-4.27h-.086l-1.184 4.27h-1.557zm7.934.092a.885.885 0 01-.642-.264.852.852 0 01-.263-.642.841.841 0 01.263-.632.88.88 0 01.642-.264.86.86 0 01.632.264.863.863 0 01.143 1.088.925.925 0 01-.328.326.86.86 0 01-.447.121v.003z" fill="#5A2989"/><path fill-rule="evenodd" clip-rule="evenodd" d="M49.717 5.233v2.102h-3.554v6.013c0 1.277.742 1.916 1.966 1.916a7.663 7.663 0 001.967-.28l.326 2.127a8.245 8.245 0 01-2.636.401c-2.529 0-4.107-1.41-4.107-3.856V7.337h-2.15V5.235h2.188v-3.86h2.423v3.858h3.577zm-13.654 4.769c-1.517-.314-2.082-.69-2.082-1.44 0-.888.903-1.41 2.724-1.41a9.88 9.88 0 013.668.702l.263-2.157a11.031 11.031 0 00-4.056-.725c-3.015 0-5.025 1.502-5.025 3.542 0 1.851 1.124 3.063 3.252 3.492l1.783.364c1.558.313 2.213.752 2.213 1.565 0 .928-.843 1.382-2.65 1.382a10.839 10.839 0 01-4.121-.87l-.301 2.147c1.044.564 2.75.898 4.583.898 2.925 0 4.91-1.164 4.91-3.595 0-2.09-1.308-3.118-3.756-3.617l-1.405-.281v.002z" fill="#5A2989"/><path fill-rule="evenodd" clip-rule="evenodd" d="M56.463 15.175a3.839 3.839 0 01-3.933-3.948 3.942 3.942 0 01.667-2.18 3.915 3.915 0 016.028-.588 3.934 3.934 0 01.85 4.277 3.921 3.921 0 01-3.61 2.436l-.002.003zm0-10.193c-3.668 0-6.41 2.742-6.41 6.262 0 3.52 2.74 6.261 6.407 6.261 3.668 0 6.402-2.742 6.402-6.261 0-3.52-2.734-6.262-6.4-6.262z" fill="#5A2989"/><path fill-rule="evenodd" clip-rule="evenodd" d="M64.932 5.233l3.126 4.232 3.125-4.232h2.862L69.6 11.116l4.546 6.136h-2.862l-3.227-4.496-3.228 4.495h-2.865l4.548-6.136-4.447-5.882h2.867z" fill="#5A2989"/><path d="M24.704 15.273a3.888 3.888 0 01-3.981-3.969c0-2.215 1.656-4.091 3.979-4.096 2.32 0 3.87 1.878 3.87 4.096s-1.545 3.969-3.865 3.969h-.003zm.299-10.29c-2.05 0-3.404.75-4.297 1.888V5.233H18.22v17.029h2.486v-6.658c.893 1.126 2.247 1.891 4.297 1.891 3.427 0 6.053-2.503 6.053-6.201 0-3.698-2.626-6.312-6.053-6.312z" fill="#5A2989"/><path fill-rule="evenodd" clip-rule="evenodd" d="M5.436 11.675a7.866 7.866 0 002.486-2.873v3.201c0 1.992 1.091 3.144 2.938 3.144 1.846 0 3.391-1.15 3.391-3.144V5.238h2.491v12.018h-2.5V15.74c-.402.614-1.544 1.763-3.766 1.763-3.289 0-5.032-2.054-5.032-4.972l-.005-.86-.003.005z" fill="#5A2989"/><path d="M0 10.639v2.41a7.972 7.972 0 005.594-2.292 7.75 7.75 0 002.32-5.527H5.476a5.384 5.384 0 01-1.605 3.82 5.515 5.515 0 01-3.874 1.59H0z" fill="#5A2989"/><path d="M84.795.43v21.626" stroke="#5A2989" stroke-width=".753" stroke-miterlimit="10"/></g><defs><clipPath id="clip0_405_89538"><path fill="#fff" d="M0 0h158v25.984H0z"/></clipPath></defs></svg>